<svg xmlns="http://www.w3.org/2000/svg" width="186" height="60" viewBox="0 0 186 60" fill="none">
    <path fill-rule="evenodd" clip-rule="evenodd" d="M160.715 1.88721H163.843V30.7151H160.715V1.88721ZM127.02 31.0675C124.131 31.0675 121.927 30.211 120.41 28.4992C118.894 26.7874 118.135 24.3139 118.136 21.0787C118.136 17.8204 118.894 15.342 120.41 13.6412C121.927 11.9404 124.13 11.0899 127.02 11.0899C129.911 11.0899 132.114 11.9404 133.633 13.6412C135.149 15.342 135.907 17.8204 135.907 21.0787C135.907 24.337 135.149 26.8166 133.633 28.5174C132.114 30.217 129.911 31.0675 127.02 31.0675ZM127.02 28.4992C129.012 28.4992 130.462 27.9112 131.376 26.7328C132.288 25.5555 132.744 23.6713 132.743 21.0787C132.743 18.4874 132.287 16.6031 131.376 15.4246C130.463 14.2462 129.013 13.6582 127.02 13.6582C125.053 13.6582 123.609 14.2474 122.684 15.4246C121.761 16.6031 121.299 18.4861 121.298 21.0787C121.298 23.6713 121.761 25.5568 122.684 26.7328C123.609 27.91 125.055 28.498 127.02 28.4992ZM58.9221 11.4483H61.6222L61.8714 13.7323H62.0854C63.4834 11.9707 65.4844 11.0912 68.0909 11.0912C70.6742 11.0912 72.6412 11.8808 73.9931 13.4638C75.3437 15.0456 76.0184 17.513 76.0172 20.8661C76.0172 24.1961 75.182 26.7291 73.5129 28.464C71.8413 30.1988 69.5035 31.0675 66.4971 31.0687C65.6668 31.0687 64.8729 31.0322 64.1143 30.9618C63.4268 30.8977 62.7398 30.8264 62.0537 30.7479V38.5596H58.9221V11.4483ZM66.564 28.679C68.6489 28.679 70.2184 28.0922 71.2736 26.9186C72.3276 25.7451 72.854 23.7891 72.854 21.0508C72.854 18.3647 72.4163 16.45 71.5398 15.308C70.6633 14.166 69.2652 13.595 67.3457 13.595C66.6585 13.5917 65.975 13.6942 65.3191 13.8987C64.7113 14.0846 64.1399 14.3738 63.6317 14.754C63.1515 15.1161 62.7576 15.5801 62.4768 16.111C62.1875 16.6662 62.0392 17.2858 62.0489 17.9127V28.2854C62.7394 28.3935 63.4336 28.4822 64.1289 28.5526C64.9386 28.6377 65.7507 28.6802 66.564 28.679ZM83.6603 30.8901C82.0009 30.8901 80.7329 30.4564 79.8576 29.5877C78.9823 28.7203 78.5434 27.4665 78.5434 25.8252C78.5434 23.9701 79.1233 22.5548 80.2843 21.5792C81.4453 20.6037 83.3053 20.0205 85.8643 19.8298L90.4499 19.4787V18.084C90.4644 17.3807 90.3859 16.6785 90.2165 15.9956C90.0871 15.4795 89.8164 15.0097 89.4348 14.6386C89.0171 14.2688 88.5087 14.0164 87.9614 13.9072C87.2004 13.7522 86.4244 13.6825 85.6479 13.6995C84.7751 13.7031 83.9022 13.7505 83.0342 13.8416C82.0146 13.9493 81.0004 14.1037 79.995 14.3045L79.747 11.9161C80.8824 11.6986 82.0276 11.5273 83.1764 11.3985C84.2098 11.2916 85.248 11.2369 86.2862 11.2369C88.7747 11.2369 90.6104 11.7484 91.7957 12.7713C92.981 13.7931 93.5731 15.387 93.5731 17.5519V30.7151H90.9824L90.6615 28.289H90.4487C89.3911 29.0641 88.2447 29.7104 87.0363 30.2158C85.9655 30.6578 84.8188 30.8868 83.6603 30.8901ZM84.7982 28.464C85.6516 28.464 86.5694 28.2623 87.5529 27.8565C88.5644 27.4386 89.5345 26.9259 90.4499 26.3233V21.4723L86.7178 21.7967C84.8699 21.9631 83.5715 22.3264 82.8251 22.8852C82.0787 23.4441 81.7042 24.3431 81.7042 25.5786C81.7042 27.5018 82.7364 28.464 84.7982 28.464ZM100.826 11.4483H98.2316V30.7151H101.36V15.8365C102.569 15.2322 103.822 14.7193 105.109 14.3021C106.305 13.9218 107.354 13.7311 108.255 13.7311C109.321 13.7287 110.103 14.0081 110.601 14.5694C111.1 15.1306 111.348 16.0758 111.348 17.4061V30.7151H114.476V16.3722C114.473 14.5888 114.04 13.2621 113.177 12.3947C112.314 11.5261 111.064 11.0924 109.428 11.0924C108.869 11.0936 108.31 11.141 107.758 11.2357C107.137 11.3457 106.525 11.5025 105.927 11.7047C105.275 11.9233 104.565 12.1955 103.795 12.5259C103.025 12.8564 102.166 13.2476 101.217 13.6995H101.039L100.826 11.4483ZM142.411 11.4483H139.709L139.714 38.5596H142.843V30.7479C143.46 30.8184 144.146 30.8901 144.905 30.9618C145.662 31.0322 146.455 31.0687 147.286 31.0687C150.292 31.0675 152.63 30.2 154.301 28.464C155.971 26.7291 156.806 24.1961 156.806 20.8661C156.807 17.513 156.131 15.0456 154.78 13.4638C153.428 11.882 151.462 11.0912 148.88 11.0912C146.273 11.0912 144.271 11.9707 142.873 13.7311H142.66L142.411 11.4483ZM152.06 26.9186C151.006 28.0922 149.437 28.679 147.351 28.679C146.537 28.679 145.726 28.6377 144.917 28.5539C144.222 28.4831 143.528 28.394 142.838 28.2866V17.9115C142.829 17.2853 142.976 16.6667 143.265 16.111C143.547 15.5801 143.939 15.1173 144.418 14.754C144.929 14.3738 145.5 14.0846 146.107 13.8987C146.763 13.6943 147.446 13.5919 148.133 13.595C150.053 13.595 151.45 14.166 152.328 15.308C153.204 16.45 153.642 18.3647 153.642 21.0508C153.642 23.7891 153.115 25.7451 152.06 26.9186ZM171.486 37.7044L171.52 38.0251L174.364 38.5596L185.597 11.8043V11.452H182.361L176.995 24.5812L176.142 27.2916H175.928L175.074 24.5812L169.92 11.452H166.58V11.8043L174.435 30.5329L171.486 37.7044Z" fill="white"/>
    <path d="M41.2945 19.9526C41.1801 16.5835 40.2422 13.2935 38.5626 10.3699C36.883 7.44636 34.5128 4.97811 31.6589 3.18066C28.8051 1.38321 25.5543 0.311208 22.1905 0.0582361C18.8266 -0.194735 15.4519 0.379018 12.361 1.72941L25.7336 15.0931L31.2043 20.6816L20.6277 31.251L10.1727 20.6816L15.2787 15.4576L5.91781 6.10298C2.10301 10.0055 -0.0225657 15.251 0.000180696 20.7065C0.0229271 26.1619 2.19217 31.3895 6.03938 35.2601L20.9924 50.2032C21.0722 50.3217 21.1913 50.4083 21.3287 50.4478C21.466 50.4873 21.613 50.4772 21.7436 50.4192C21.8742 50.3611 21.9802 50.259 22.0429 50.1306C22.1057 50.0022 22.1211 49.8559 22.0865 49.7172L21.4787 41.942C21.4787 41.7809 21.5427 41.6264 21.6567 41.5125C21.7707 41.3986 21.9253 41.3346 22.0865 41.3346C33.0278 40.6056 41.5377 31.1295 41.2945 20.0741V19.9526Z" fill="white"/>
    <path fill-rule="evenodd" clip-rule="evenodd" d="M59.1106 56.0797C60.1744 56.3866 61.2772 56.5373 62.3845 56.5268C64.0208 56.5268 65.2559 56.1259 66.1045 55.324C66.9397 54.5052 67.3567 53.3025 67.3567 51.7122C67.3567 50.6941 67.1865 49.8607 66.8619 49.1974C66.5373 48.5183 66.1057 48.0396 65.5489 47.731C64.972 47.4164 64.323 47.2573 63.6658 47.2694C63.1102 47.2694 62.5996 47.3605 62.1523 47.5464C61.7149 47.7243 61.3201 47.9926 60.9937 48.3336H60.8867V43.0562H59.1106V56.0797ZM64.7928 54.3521C64.2992 54.8757 63.5418 55.1382 62.523 55.1382C61.9359 55.1382 61.3961 55.0616 60.9171 54.9377V49.6603C61.1955 49.3517 61.5189 49.1354 61.8897 48.9811C62.2698 48.8385 62.6725 48.7653 63.0786 48.7649C63.8664 48.7649 64.4682 48.9957 64.9022 49.4756C65.3337 49.953 65.5501 50.7561 65.5501 51.8665C65.5501 52.9939 65.2875 53.8273 64.7928 54.3521ZM77.3314 47.4079H75.5565L72.6522 54.9073L69.8111 47.4079H67.9426L71.5107 56.3737H71.9884L70.5223 60.0001H72.2972L77.3314 47.4079ZM85.8705 56.528C85.2991 56.528 84.7131 56.4806 84.1259 56.3883C83.5711 56.3036 83.0239 56.1748 82.4896 56.0032V54.504C83.582 54.8569 84.7224 55.0392 85.8705 55.0446C86.8746 55.0446 87.6162 54.8745 88.0794 54.5344C88.5584 54.1954 88.7893 53.7022 88.7893 53.0546C88.7893 52.6841 88.7128 52.3901 88.5584 52.1435C88.404 51.8969 88.1718 51.6964 87.8168 51.5263C87.4764 51.3562 87.0144 51.2177 86.4273 51.0792L85.6395 50.8934C84.4809 50.6467 83.6324 50.2458 83.0756 49.6906C82.52 49.1342 82.2574 48.4089 82.2574 47.499C82.2574 46.7579 82.4434 46.1262 82.7984 45.6159C83.1534 45.0911 83.6932 44.6902 84.4031 44.4132C85.1301 44.1338 86.0103 43.9965 87.0606 43.9965C87.6004 43.9965 88.1098 44.0268 88.6192 44.1034C89.1297 44.1653 89.6075 44.2735 90.0245 44.3974V45.8941C89.0785 45.6091 88.0948 45.4686 87.1068 45.4774C85.0839 45.4774 84.0639 46.1249 84.0639 47.4212C84.0639 47.7772 84.1259 48.0858 84.2645 48.3166C84.4043 48.5474 84.6207 48.7491 84.9295 48.918C85.2383 49.088 85.6711 49.2265 86.2109 49.3505L86.9986 49.5363C88.2642 49.8133 89.1747 50.23 89.7461 50.7707C90.3175 51.3101 90.6117 52.0353 90.6117 52.9453C90.6117 53.6864 90.4269 54.3351 90.0561 54.8745C89.6853 55.4151 89.1443 55.8161 88.4344 56.0943C87.7244 56.3871 86.8746 56.5255 85.8705 56.5255V56.528ZM102.224 54.521C102.996 53.4713 103.383 52.0524 103.383 50.2628C103.383 48.873 103.152 47.6994 102.687 46.8053C102.224 45.8637 101.575 45.17 100.726 44.7218C99.8765 44.2747 98.8735 44.0439 97.7308 44.0439C96.588 44.0439 95.5839 44.2589 94.7353 44.7218C93.9013 45.1858 93.2364 45.8795 92.7732 46.8211C92.3112 47.7626 92.079 48.935 92.079 50.3394C92.079 51.96 92.4024 53.3183 93.0516 54.3825C93.6995 55.4467 94.8119 56.3263 96.3874 57.0066C97.9618 57.6845 100.139 58.1936 102.919 58.5337L103.197 57.0832C101.498 56.9131 100.031 56.6665 98.8115 56.3421C100.309 56.172 101.452 55.5549 102.224 54.521ZM94.9201 53.8735C94.2563 53.1166 93.9317 51.8981 93.9317 50.2167C93.9317 48.596 94.2563 47.4079 94.9359 46.6364C95.5997 45.8795 96.526 45.4944 97.7308 45.4944C98.9343 45.4944 99.8619 45.8795 100.526 46.651C101.189 47.4224 101.529 48.6422 101.529 50.3078C101.529 51.9284 101.188 53.1166 100.526 53.8735C99.8619 54.6291 98.9343 55.0155 97.7296 55.0155C96.5102 55.0155 95.5839 54.6449 94.9201 53.8735ZM105.436 47.4079H106.903L107.042 48.5802H107.15C107.459 48.1793 107.845 47.8549 108.323 47.6387C108.809 47.4222 109.335 47.3116 109.867 47.3143C110.161 47.3143 110.424 47.3459 110.671 47.3921V49.0127C110.369 48.9658 110.064 48.945 109.759 48.9508C109.297 48.9508 108.818 49.0431 108.355 49.2435C107.909 49.4115 107.515 49.6934 107.212 50.0612V56.3883H105.435V47.4091L105.436 47.4079ZM113.111 52.4229H119.165V51.9284C119.165 50.4013 118.839 49.2436 118.175 48.4563C117.527 47.6691 116.585 47.2682 115.334 47.2682C114.484 47.2682 113.758 47.4382 113.157 47.793C112.555 48.1477 112.106 48.6726 111.783 49.3675C111.473 50.0466 111.319 50.8946 111.319 51.8981C111.319 53.5017 111.705 54.6753 112.493 55.4322C113.281 56.1878 114.47 56.5584 116.06 56.5584C116.924 56.5584 117.804 56.4344 118.716 56.1878V54.815C117.851 55.0458 117.048 55.1697 116.307 55.1697C115.581 55.1697 114.994 55.0762 114.532 54.8915C114.095 54.7272 113.729 54.4163 113.496 54.012C113.265 53.611 113.141 53.0704 113.111 52.4229ZM113.682 49.1354C114.053 48.6883 114.608 48.4563 115.318 48.4563C116.029 48.4563 116.553 48.6871 116.924 49.1366C117.279 49.5983 117.48 50.3236 117.496 51.3271H113.095C113.111 50.3236 113.311 49.5983 113.682 49.1354ZM123.951 47.2524C124.846 47.2524 125.571 47.3617 126.128 47.5767C126.7 47.793 127.117 48.1635 127.394 48.6726C127.672 49.1828 127.811 49.8607 127.811 50.7257V56.3579H126.329L126.205 55.386H126.097C125.788 55.7407 125.402 56.0177 124.923 56.2194C124.432 56.4121 123.908 56.511 123.379 56.511C122.762 56.511 122.237 56.4041 121.788 56.2036C121.376 56.0199 121.027 55.719 120.785 55.3386C120.553 54.9535 120.445 54.521 120.445 54.012C120.445 53.2101 120.723 52.593 121.295 52.1447C121.866 51.6976 122.777 51.4194 124.013 51.3113L126.066 51.1108V50.6322C126.066 50.1231 125.974 49.721 125.804 49.444C125.633 49.1487 125.357 48.9283 125.032 48.8268C124.691 48.7041 124.244 48.6422 123.672 48.6422C123.271 48.6422 122.854 48.6726 122.391 48.7345C121.945 48.7954 121.505 48.8988 121.078 49.0431V47.6703C121.532 47.5278 121.997 47.4242 122.468 47.3605C122.993 47.2997 123.488 47.2524 123.951 47.2524ZM123.889 55.2463C124.29 55.2463 124.691 55.1697 125.062 55.0155C125.449 54.8612 125.773 54.6291 126.082 54.3205V52.2066L124.182 52.3913C123.502 52.4691 123.009 52.6221 122.7 52.8542C122.391 53.085 122.251 53.4252 122.251 53.8577C122.251 54.2902 122.391 54.6291 122.668 54.8757C122.947 55.1236 123.333 55.2463 123.889 55.2463ZM142.048 48.0858C141.524 47.5306 140.798 47.2536 139.872 47.2536C139.351 47.254 138.837 47.3589 138.358 47.5622C137.838 47.7811 137.369 48.1069 136.983 48.5183C136.504 47.6703 135.718 47.2536 134.589 47.2536C134.05 47.2536 133.555 47.3605 133.092 47.5451C132.632 47.7431 132.217 48.0325 131.872 48.3956H131.78L131.656 47.4079H130.174V56.3737H131.949V49.8923C132.212 49.5376 132.536 49.2751 132.907 49.0905C133.292 48.9046 133.663 48.8111 134.065 48.8111C134.589 48.8111 134.976 48.9666 135.254 49.2751C135.532 49.5667 135.671 50.077 135.671 50.7864V56.3725H137.416V50.6625C137.416 50.3236 137.4 50.0308 137.354 49.7842C137.616 49.444 137.941 49.1974 138.296 49.0431C138.646 48.89 139.025 48.8114 139.407 48.8123C139.932 48.8123 140.335 48.9666 140.628 49.2739C140.921 49.5837 141.061 50.077 141.061 50.7864V56.3725H142.835V50.6941C142.835 49.506 142.573 48.641 142.048 48.0858Z" fill="white"/>
</svg>